<?xml version="1.0" standalone="no"?>
<!DOCTYPE svg PUBLIC "-//W3C//DTD SVG 20010904//EN"
 "http://www.w3.org/TR/2001/REC-SVG-20010904/DTD/svg10.dtd">
<svg version="1.0" xmlns="http://www.w3.org/2000/svg"
 width="811.000000pt" height="526.000000pt" viewBox="0 0 811.000000 526.000000"
 preserveAspectRatio="xMidYMid meet">
<metadata>
Created by potrace 1.16, written by Peter Selinger 2001-2019
</metadata>
<g transform="translate(0.000000,526.000000) scale(0.100000,-0.100000)"
fill="#000000" stroke="none">
<path d="M0 2630 l0 -2630 4055 0 4055 0 0 2630 0 2630 -4055 0 -4055 0 0
-2630z m4315 1866 c19 -19 23 -32 21 -65 -4 -52 -29 -81 -70 -81 -26 0 -44
-13 -111 -86 -64 -70 -80 -83 -85 -68 -5 12 -9 14 -14 6 -4 -7 -4 -17 -1 -22
9 -15 -183 -209 -213 -217 -15 -3 -20 -8 -12 -13 7 -4 -22 -38 -79 -92 -50
-46 -91 -88 -91 -92 0 -4 46 -55 101 -113 56 -58 97 -108 92 -112 -5 -3 -12
-14 -16 -24 -7 -17 -8 -17 -31 0 -14 10 -131 124 -260 254 -204 205 -239 236
-266 237 -41 1 -73 29 -67 59 2 12 0 20 -5 17 -19 -12 6 52 29 74 30 27 53 28
87 1 20 -15 26 -29 26 -57 0 -34 9 -46 127 -159 124 -118 127 -122 114 -146
-8 -14 -11 -33 -8 -41 8 -19 41 -21 54 -3 15 18 24 89 11 81 -23 -14 0 16 60
81 34 37 62 71 62 76 0 4 -15 20 -34 34 -66 50 -176 182 -180 215 -4 36 -10
45 -26 35 -6 -4 -8 -15 -5 -26 9 -27 -17 -25 -49 4 -35 30 -39 98 -9 129 26
25 77 28 100 5 9 -8 18 -38 21 -66 4 -47 9 -55 71 -113 36 -35 88 -87 115
-117 l49 -53 75 75 76 76 -59 67 c-46 52 -59 73 -57 95 1 16 -2 29 -8 29 -5 0
-10 -11 -10 -25 0 -32 -25 -33 -57 -3 -29 27 -33 106 -5 130 28 25 52 29 81
13 29 -14 40 -38 41 -85 1 -16 23 -49 65 -94 l64 -69 53 48 c99 91 105 98 111
145 10 76 73 105 122 56z m224 -111 c16 -16 22 -81 10 -112 -19 -50 -99 -56
-99 -7 0 13 -7 27 -15 30 -9 4 -15 19 -15 39 0 62 73 93 119 50z m-119 -89 c0
-2 3 -12 7 -22 4 -12 3 -15 -5 -10 -7 4 -12 2 -12 -3 0 -6 5 -11 10 -11 21 0
-12 -42 -135 -167 -68 -70 -123 -130 -123 -133 5 -56 -4 -359 -11 -358 -10 3
-11 -1 -11 -33 0 -11 5 -17 10 -14 7 4 10 -250 10 -754 l0 -761 -22 0 c-19 0
-20 2 -8 10 8 5 11 10 5 10 -7 0 -9 248 -7 729 l2 729 -92 91 c-78 77 -98 91
-125 91 -46 0 -69 29 -68 84 1 52 26 86 62 86 40 0 62 -18 73 -63 8 -28 29
-59 63 -95 93 -95 88 -101 87 115 -1 103 -1 194 -1 201 1 17 264 282 280 282
6 0 11 -2 11 -4z m334 -179 c23 -23 24 -30 17 -104 -2 -21 -32 -43 -59 -43
-20 0 -46 -19 -99 -72 l-72 -71 26 -31 c14 -17 50 -58 81 -90 l56 -59 52 56
c40 43 51 61 47 80 -6 33 27 67 67 67 43 0 79 -44 70 -85 -1 -5 -3 -20 -5 -33
-3 -29 -32 -51 -68 -52 -22 0 -41 -13 -78 -52 -41 -45 -49 -50 -49 -31 0 12
-9 27 -20 33 -14 7 -20 7 -20 0 0 -5 6 -10 13 -10 8 0 7 -4 -3 -10 -13 -9 -13
-10 0 -10 11 0 10 -4 -4 -12 -18 -10 -18 -12 -3 -23 15 -11 -2 -31 -140 -166
l-158 -154 5 -103 5 -102 172 172 c142 144 171 178 171 201 0 16 8 41 19 55
41 55 131 32 119 -30 -3 -15 -1 -30 3 -33 28 -17 -24 -75 -66 -75 -16 0 -81
-58 -224 -202 l-201 -201 0 -76 c0 -42 0 -85 1 -96 2 -30 131 101 131 133 0
26 17 63 34 74 6 4 25 8 42 8 46 0 69 -31 67 -88 -2 -53 -27 -82 -72 -82 -21
0 -48 -21 -114 -87 l-87 -86 -2 -190 c-2 -141 -6 -191 -15 -195 -7 -2 -13 4
-13 13 0 9 3 14 8 12 4 -3 6 69 5 159 -2 136 -5 168 -19 190 -17 25 -17 29 -2
73 14 37 17 94 18 306 0 177 4 261 11 264 7 2 6 7 -2 12 -12 8 -11 11 1 19 14
9 7 14 -13 11 -4 -1 -3 8 3 19 6 11 16 17 22 14 6 -4 9 -3 5 2 -3 5 10 27 29
48 l35 39 -33 36 c-44 47 -46 49 -71 44 -13 -3 -34 5 -50 17 -23 18 -27 29
-27 70 0 41 4 52 26 69 15 12 34 21 44 21 30 0 70 -39 70 -68 0 -18 16 -45 48
-80 l47 -53 59 59 58 60 -92 90 -92 90 6 42 c5 37 4 41 -9 30 -8 -7 -15 -19
-15 -28 0 -12 -5 -11 -23 6 -13 13 -36 22 -54 22 -43 0 -68 32 -68 87 0 52 28
83 75 83 35 0 57 -26 66 -78 8 -51 25 -68 51 -51 10 7 47 43 81 81 53 57 63
73 58 94 -5 18 0 31 18 49 31 31 70 32 100 2z m-1536 -214 c12 -10 23 -35 25
-57 4 -33 19 -53 95 -130 136 -137 282 -308 282 -329 0 -10 3 -16 8 -13 4 2 6
-62 4 -142 -4 -206 -2 -404 4 -424 3 -11 0 -18 -8 -18 -10 0 -10 -2 1 -9 11
-7 12 -25 8 -77 -8 -90 -8 -421 0 -459 6 -27 5 -29 -10 -16 -15 12 -17 41 -17
232 l0 219 -143 145 c-125 126 -148 145 -175 145 -18 0 -40 8 -51 19 -26 26
-26 92 0 125 39 50 119 21 119 -43 0 -26 18 -49 118 -151 66 -66 122 -120 125
-120 4 0 7 48 7 108 l0 107 -221 223 c-198 199 -224 222 -253 222 -41 0 -66
26 -73 77 -11 81 78 128 126 66 12 -14 19 -33 16 -42 -2 -9 -1 -22 4 -29 4 -7
96 -103 204 -212 l197 -198 0 96 0 97 -73 75 c-201 210 -313 341 -300 354 3 3
1 6 -5 6 -7 0 -12 11 -12 25 0 14 5 25 11 25 5 0 7 5 4 10 -10 16 -42 12 -49
-6 -3 -8 -1 -24 4 -35 9 -16 7 -19 -14 -19 -13 0 -34 8 -46 18 -30 25 -35 107
-8 134 23 23 70 23 96 1z m505 -2125 c22 -17 249 -554 245 -581 -3 -22 -4 -22
-283 -25 -333 -3 -334 -3 -298 72 l23 46 195 0 c107 0 195 3 195 8 0 4 -25 68
-56 142 -31 74 -59 144 -64 155 -9 22 -3 32 -71 -130 -60 -141 -49 -128 -109
-128 -53 0 -60 3 -60 22 0 10 36 102 80 205 44 102 80 191 80 196 0 26 94 39
123 18z m692 -17 c104 -46 164 -135 173 -253 11 -159 -67 -280 -207 -322 -59
-17 -295 -23 -319 -7 -9 5 -12 25 -10 57 l3 49 157 5 c138 4 160 7 184 26 106
79 97 274 -16 332 -40 20 -59 22 -182 22 -88 0 -139 4 -144 11 -11 19 -6 92 8
101 7 5 78 7 158 5 123 -3 152 -7 195 -26z m-1123 2 c2 -9 2 -144 0 -300 l-3
-283 -54 0 c-54 0 -55 0 -93 53 -101 137 -191 268 -181 262 6 -4 24 -25 40
-47 16 -23 29 -38 29 -34 0 14 -29 63 -44 75 -9 8 -16 18 -16 23 0 6 6 6 14
-1 8 -7 17 -8 20 -3 3 6 -1 15 -9 22 -18 15 -19 44 -2 58 9 8 31 -15 92 -98
44 -60 83 -109 88 -109 4 -1 7 86 7 192 0 107 3 197 7 200 3 4 28 7 54 7 36 0
48 -4 51 -17z m1715 -33 c12 -25 22 -52 22 -60 0 -8 -9 5 -20 30 -18 43 -19
44 -13 10 8 -50 5 -101 -7 -132 -8 -20 -7 -33 5 -55 10 -18 15 -22 16 -11 0 9
4 19 9 22 5 4 7 -3 4 -14 -4 -16 -2 -19 13 -13 16 6 17 5 4 -9 -11 -11 -17
-13 -23 -4 -5 6 -6 -2 -3 -19 5 -30 5 -30 -6 -5 -7 14 -25 53 -40 88 -15 35
-32 61 -38 57 -5 -3 -10 -11 -10 -17 0 -5 -6 -24 -14 -41 -8 -18 -31 -74 -51
-124 l-38 -93 -53 0 c-29 0 -56 5 -59 10 -3 6 10 47 30 93 21 45 43 98 50 117
7 19 27 64 43 100 16 36 30 70 31 75 10 39 23 46 74 43 51 -3 53 -4 74 -48z
m-9 -494 l3 -54 -168 -4 c-92 -3 -173 -3 -180 0 -21 7 -21 27 -1 70 l20 42
162 0 161 0 3 -54z m-1797 -188 c2 -7 3 -84 1 -171 l-3 -158 -27 3 -27 3 -3
162 c-2 148 -1 162 15 166 32 8 41 7 44 -5z m416 1 c107 -40 144 -187 68 -277
-36 -43 -70 -53 -171 -50 -88 3 -89 3 -89 28 0 24 2 25 85 30 102 6 126 18
141 69 14 46 8 77 -22 114 -19 25 -26 27 -99 27 -43 0 -85 3 -94 6 -16 6 -22
45 -9 57 10 11 159 8 190 -4z m233 -109 c6 -125 12 -145 41 -153 14 -4 19 -14
19 -42 0 -33 -2 -36 -22 -30 -38 11 -72 40 -90 76 -14 26 -18 59 -18 145 0 61
3 114 7 118 4 4 19 6 33 4 25 -3 25 -4 30 -118z m225 -5 c0 -87 -4 -128 -15
-149 -16 -32 -52 -61 -87 -71 -18 -5 -24 -1 -29 20 -5 22 0 32 30 59 l36 34 0
109 c0 60 3 113 7 117 4 4 19 6 33 4 l25 -3 0 -120z m296 102 c43 -29 57 -74
36 -116 -14 -27 -13 -31 4 -47 30 -27 26 -94 -7 -125 -23 -22 -35 -24 -140
-27 l-114 -4 0 31 0 31 93 0 c104 0 134 12 123 48 -8 23 -52 33 -136 31 -80
-2 -82 -2 -78 29 3 27 4 27 88 30 90 3 113 13 108 46 -3 19 -11 21 -98 26 -81
4 -95 8 -98 23 -8 41 3 47 96 47 76 0 94 -3 123 -23z m287 11 c12 -16 122
-275 129 -305 l5 -23 -166 0 c-171 0 -177 1 -156 41 10 17 22 19 120 19 61 0
110 3 110 8 0 11 -61 156 -70 165 -4 4 -13 -7 -20 -25 -43 -108 -49 -118 -80
-118 -18 0 -30 5 -30 13 0 13 68 176 91 218 11 22 52 25 67 7z"/>
</g>
</svg>
